<svg xmlns="http://www.w3.org/2000/svg" xmlns:xlink="http://www.w3.org/1999/xlink" aria-hidden="true" role="img" class="iconify iconify--logos" width="15" height="15" preserveAspectRatio="xMidYMid meet" viewBox="0 0 32 32">
  <path d="M13.383 7.088l0.865 1.551c0.781 1.399 0.467 3.235-0.763 4.465 0 0 0 0 0 0s-1.492 1.492 1.213 4.197c2.704 2.704 4.196 1.214 4.197 1.213 0 0 0 0 0 0 1.23-1.23 3.066-1.543 4.465-0.763l1.551 0.865c2.113 1.179 2.363 4.142 0.505 6-1.116 1.116-2.483 1.984-3.995 2.042-2.544 0.097-6.865-0.547-11.199-4.881s-4.978-8.655-4.882-11.199c0.057-1.511 0.926-2.878 2.042-3.994 1.857-1.857 4.82-1.608 6 0.505z"></path>
</svg>